<?xml version="1.0" encoding="UTF-8" standalone="no"?>
<svg width="35px" height="29px" viewBox="0 0 35 29" version="1.1" xmlns="http://www.w3.org/2000/svg" xmlns:xlink="http://www.w3.org/1999/xlink">
    <!-- Generator: Sketch 45.2 (43514) - http://www.bohemiancoding.com/sketch -->
    <title>公司</title>
    <desc>Created with Sketch.</desc>
    <defs></defs>
    <g id="Page-1" stroke="none" stroke-width="1" fill="none" fill-rule="evenodd">
        <g id="2_首页" transform="translate(-302.000000, -178.000000)" fill-rule="nonzero" fill="#FFFFFF">
            <g id="公司" transform="translate(302.000000, 178.000000)">
                <path d="M24.9375,22 L22.8125,22 C22.175,22 21.75,21.5428572 21.75,20.8571428 C21.7499999,20.1714285 22.175,19.7142857 22.8125,19.7142857 L24.9375,19.7142857 C25.575,19.7142857 26,20.1714285 26,20.8571428 C26,21.5428571 25.575,21.9999999 24.9375,22 Z M14.3125,8.2857143 L10.0625,8.2857143 C9.42500003,8.2857143 9.00000005,7.82857146 9,7.14285712 C8.99999995,6.45714279 9.42499998,6 10.0625,6 L14.3125,6 C14.95,6 15.375,6.45714284 15.375,7.14285712 C15.375,7.82857141 14.95,8.28571425 14.3125,8.2857143 Z M14.3125,15.1428572 L10.0625,15.1428572 C9.42500003,15.1428572 9.00000005,14.6857143 9,14 C8.99999995,13.3142856 9.42499998,12.8571428 10.0625,12.8571428 L14.3125,12.8571428 C14.95,12.8571428 15.375,13.3142857 15.375,14 C15.375,14.6857143 14.95,15.1428571 14.3125,15.1428572 Z M14.3125,22 L10.0625,22 C9.42500003,22 9.00000005,21.5428572 9,20.8571428 C8.99999995,20.1714285 9.42499998,19.7142857 10.0625,19.7142857 L14.3125,19.7142857 C14.95,19.7142857 15.375,20.1714285 15.375,20.8571428 C15.375,21.5428571 14.95,21.9999999 14.3125,22 Z M24.9375,15.1428572 L22.8125,15.1428572 C22.175,15.1428572 21.75,14.6857143 21.75,14 C21.7499999,13.3142856 22.175,12.8571428 22.8125,12.8571428 L24.9375,12.8571428 C25.575,12.8571428 26,13.3142857 26,14 C26,14.6857143 25.575,15.1428571 24.9375,15.1428572 Z" id="Shape"></path>
                <path d="M19.6875,26.7692308 L33.90625,26.7692308 C34.5625,26.7692308 35,27.2153846 35,27.8846154 C35,28.5538461 34.5625,28.9999999 33.90625,29 L1.09374998,29 C0.437499983,29 0,28.5538462 0,27.8846154 C0,27.2153845 0.437499983,26.7692308 1.09374998,26.7692308 L4.37499999,26.7692308 L4.37499999,5.79999998 C4.37499999,3.79230767 4.59375,2.89999996 5.03124999,2.23076925 C5.25000001,1.56153848 5.90625001,0.892307709 6.56250001,0.669230769 C7.21875001,0.22307694 8.09375002,0 10.0625,0 L14.21875,0 C16.1875,0 16.84375,0.22307694 17.5,0.669230769 C18.15625,1.1153846 18.8125,1.56153848 19.25,2.45384613 C19.6875,3.34615379 19.6875,3.79230767 19.6875,5.79999998 L19.6875,7.36153846 C20.34375,6.91538463 21.21875,6.69230769 22.96875,6.69230769 L25.15625,6.69230769 C26.90625,6.69230769 27.78125,6.91538463 28.4375,7.36153846 C29.09375,7.80769229 29.75,8.25384617 30.1875,9.14615382 C30.625,9.81538459 30.84375,10.7076923 30.84375,12.4923077 L30.84375,23.6461538 C30.84375,24.3153846 30.40625,24.7615384 29.75,24.7615384 C29.0937499,24.7615384 28.65625,24.3153846 28.65625,23.6461538 L28.65625,12.4923077 C28.65625,11.1538461 28.65625,10.7076923 28.4375,10.2615385 C28.21875,9.81538464 28,9.5923077 27.78125,9.5923077 C27.34375,9.36923076 26.90625,9.36923076 25.59375,9.36923076 L23.40625,9.36923076 C22.09375,9.36923076 21.65625,9.36923076 21.21875,9.5923077 C20.78125,9.81538464 20.5625,10.0384615 20.5625,10.2615385 C20.34375,10.7076923 20.34375,11.1538462 20.34375,12.4923077 L20.34375,26.7692308 L19.6875,26.7692308 Z M17.5,26.7692308 L17.5,5.79999998 C17.5,4.2384615 17.5,3.79230767 17.28125,3.34615384 C17.0625,2.90000002 16.84375,2.67692308 16.625,2.67692308 C15.96875,2.23076925 15.53125,2.23076925 14,2.23076925 L10.0625,2.23076925 C8.53124996,2.23076925 8.09374997,2.23076925 7.65624999,2.45384613 C7.21875001,2.67692308 6.99999999,2.89999996 6.78124997,3.34615384 C6.56249996,3.79230767 6.56249996,4.23846155 6.56250001,5.79999998 L6.56250001,26.7692308 L17.5,26.7692308 L17.5,26.7692308 Z" id="Shape"></path>
            </g>
        </g>
    </g>
</svg>