<?xml version="1.0" encoding="UTF-8" standalone="no"?>
<svg width="30px" height="30px" viewBox="0 0 30 30" version="1.1" xmlns="http://www.w3.org/2000/svg" xmlns:xlink="http://www.w3.org/1999/xlink">
    <!-- Generator: Sketch 45.2 (43514) - http://www.bohemiancoding.com/sketch -->
    <title>品牌 标志 brand 2</title>
    <desc>Created with Sketch.</desc>
    <defs></defs>
    <g id="Page-1" stroke="none" stroke-width="1" fill="none" fill-rule="evenodd">
        <g id="4_话题(工地信息)" transform="translate(-29.000000, -613.000000)" fill-rule="nonzero" fill="#17A271">
            <g id="进行中的话题－品牌列表" transform="translate(-2.000000, 484.000000)">
                <g id="进行中的话题">
                    <g id="品牌-标志-brand-2" transform="translate(31.000000, 129.000000)">
                        <path d="M17,8 L10,8 L10,14 C10,14 15.34,14 17,14 C18.66,14 20,12.66 20,11 C20,9.34 18.66,8 17,8 Z M15,0 C6.72,0 0,6.72 0,15 C0,23.28 6.72,30 15,30 C23.28,30 30,23.28 30,15 C30,6.72 23.28,0 15,0 Z M21.68,22.42 C21.96,22.9 21.72,23.5 21.26,23.78 C20.78,24.06 20.04,23.9 19.76,23.42 L15.76,16.5 C15.66,16.34 15.66,16.16 15.68,16 C13.06,16 10,16 10,16 L10,23 C10,23.56 9.56,24 9,24 C8.44,24 8,23.56 8,23 L8,7 C8,6.44 8.44,6 9,6 C9,6 14.98,6 17,6 C19.76,6 22,8.24 22,11 C22,13.44 20.24,15.48 17.92,15.9 L21.68,22.42 Z" id="Shape"></path>
                    </g>
                </g>
            </g>
        </g>
    </g>
</svg>