<?xml version="1.0" encoding="UTF-8" standalone="no"?>
<svg width="26px" height="30px" viewBox="0 0 26 30" version="1.1" xmlns="http://www.w3.org/2000/svg" xmlns:xlink="http://www.w3.org/1999/xlink">
    <!-- Generator: Sketch 45.2 (43514) - http://www.bohemiancoding.com/sketch -->
    <title>地址</title>
    <desc>Created with Sketch.</desc>
    <defs></defs>
    <g id="Page-1" stroke="none" stroke-width="1" fill="none" fill-rule="evenodd">
        <g id="11_全部话题_搜索" transform="translate(-29.000000, -353.000000)" fill-rule="nonzero" fill="#17A271">
            <g id="进行中的话题" transform="translate(0.000000, 224.000000)">
                <g id="地址" transform="translate(29.000000, 129.000000)">
                    <path d="M13.0001154,0 C5.83228309,0 0,5.19349275 0,11.5762565 C0,17.7378562 11.6492394,28.6783686 12.1444037,29.1403468 C12.3676569,29.3497539 12.6772846,29.4666667 13.0001154,29.4666667 L13.0260601,29.4666667 C13.3580315,29.4666667 13.6713063,29.3287063 13.8898507,29.1066378 L17.9235048,24.9919162 C23.2829675,19.1459893 26,14.6322268 26,11.5762565 C26,5.19349271 20.167717,0 13.0001154,0 L13.0001154,0 Z M13.0001154,16.8381539 C9.73593705,16.8381539 7.09101403,14.4829204 7.09101403,11.5762565 C7.09101403,8.66959263 9.73593705,6.31435913 13.0001154,6.31435913 C16.2642938,6.31435913 18.9092168,8.66959263 18.9092168,11.5762565 C18.9092168,14.4829204 16.2642938,16.8381539 13.0001154,16.8381539 L13.0001154,16.8381539 Z" id="Shape"></path>
                </g>
            </g>
        </g>
    </g>
</svg>