<?xml version="1.0" encoding="UTF-8" standalone="no"?>
<svg width="34px" height="51px" viewBox="0 0 34 51" version="1.1" xmlns="http://www.w3.org/2000/svg" xmlns:xlink="http://www.w3.org/1999/xlink">
    <!-- Generator: Sketch 45.2 (43514) - http://www.bohemiancoding.com/sketch -->
    <title>手机</title>
    <desc>Created with Sketch.</desc>
    <defs></defs>
    <g id="Page-1" stroke="none" stroke-width="1" fill="none" fill-rule="evenodd">
        <g id="1_登陆" transform="translate(-65.000000, -478.000000)" fill-rule="nonzero" fill="#FFFFFF">
            <g id="手机" transform="translate(65.000000, 478.000000)">
                <path d="M16.4999266,41 C15.1214752,41 14,42.1213883 14,43.5 C14,44.8784649 15.1214752,46 16.4999266,46 C17.8784759,46 19,44.8785628 19,43.5 C18.9999511,42.1213883 17.8784759,41 16.4999266,41 Z" id="Shape"></path>
                <path d="M30.0255631,0 L3.97454002,0 C1.78297171,0 0,1.75991003 0,3.92313171 L0,47.0768683 C0,49.2401408 1.78297171,51 3.97454002,51 L30.0255115,51 C32.2170798,51 34,49.2401408 34,47.0768683 L34,3.92313171 C34.0000515,1.75991003 32.2171314,3.34355959e-15 30.0255631,0 Z M3.97454002,2.61547201 L30.0255115,2.61547201 C30.7560686,2.61547201 31.3504097,3.20217652 31.3504097,3.92323345 L31.3504097,36.2537396 L2.64974488,36.2537396 L2.64974488,3.92318258 C2.64974488,3.20212564 3.24408597,2.61547201 3.97459156,2.61547201 L3.97454002,2.61547201 Z M30.0255631,48.3844771 L3.97454002,48.3844771 C3.24403443,48.3844771 2.64964181,47.7978744 2.64964181,47.0767665 L2.64964181,39.0928949 L31.3503582,39.0928949 L31.3503582,47.0768174 C31.3504097,47.7979252 30.7560686,48.3844771 30.0255115,48.3844771 L30.0255631,48.3844771 Z" id="Shape"></path>
            </g>
        </g>
    </g>
</svg>