<?xml version="1.0" encoding="UTF-8" standalone="no"?>
<svg width="24px" height="24px" viewBox="0 0 24 24" version="1.1" xmlns="http://www.w3.org/2000/svg" xmlns:xlink="http://www.w3.org/1999/xlink">
    <!-- Generator: Sketch 45.2 (43514) - http://www.bohemiancoding.com/sketch -->
    <title>搜索Icon2</title>
    <desc>Created with Sketch.</desc>
    <defs></defs>
    <g id="Page-1" stroke="none" stroke-width="1" fill="none" fill-rule="evenodd">
        <g id="11_全部话题_搜索" transform="translate(-32.000000, -260.000000)" fill="#B2B2B2">
            <g id="搜索框" transform="translate(0.000000, 226.000000)">
                <g id="搜索Icon2" transform="translate(32.000000, 34.000000)">
                    <path d="M17.0261394,15.6690594 L24,22.6429199 L22.6429199,24 L15.6690594,17.0261394 C14.0148323,18.3798377 11.9002652,19.1920103 9.59600513,19.1920103 C4.29627784,19.1920103 0,14.8957324 0,9.59600513 C0,4.29627784 4.29627784,0 9.59600513,0 C14.8957324,0 19.1920103,4.29627784 19.1920103,9.59600513 C19.1920103,11.9002652 18.3798377,14.0148323 17.0261394,15.6690594 Z M9.59600513,17.2728092 C13.835787,17.2728092 17.2728092,13.835787 17.2728092,9.59600513 C17.2728092,5.3562233 13.835787,1.91920103 9.59600513,1.91920103 C5.3562233,1.91920103 1.91920103,5.3562233 1.91920103,9.59600513 C1.91920103,13.835787 5.3562233,17.2728092 9.59600513,17.2728092 Z" id="Loupe"></path>
                </g>
            </g>
        </g>
    </g>
</svg>