<?xml version="1.0" encoding="UTF-8" standalone="no"?>
<svg width="28px" height="28px" viewBox="0 0 28 28" version="1.1" xmlns="http://www.w3.org/2000/svg" xmlns:xlink="http://www.w3.org/1999/xlink">
    <!-- Generator: Sketch 45.2 (43514) - http://www.bohemiancoding.com/sketch -->
    <title>搜索Icon</title>
    <desc>Created with Sketch.</desc>
    <defs></defs>
    <g id="Page-1" stroke="none" stroke-width="1" fill="none" fill-rule="evenodd">
        <g id="10_全班话题" transform="translate(-492.000000, -164.000000)" fill="#666666">
            <path d="M511.863829,182.280569 L520,190.41674 L518.41674,192 L510.280569,183.863829 C508.350638,185.443144 505.883643,186.390679 503.195339,186.390679 C497.012324,186.390679 492,181.378354 492,175.195339 C492,169.012324 497.012324,164 503.195339,164 C509.378354,164 514.390679,169.012324 514.390679,175.195339 C514.390679,177.883643 513.443144,180.350638 511.863829,182.280569 Z M503.195339,184.151611 C508.141751,184.151611 512.151611,180.141751 512.151611,175.195339 C512.151611,170.248927 508.141751,166.239068 503.195339,166.239068 C498.248927,166.239068 494.239068,170.248927 494.239068,175.195339 C494.239068,180.141751 498.248927,184.151611 503.195339,184.151611 Z" id="搜索Icon"></path>
        </g>
    </g>
</svg>