<?xml version="1.0" encoding="UTF-8" standalone="no"?>
<svg width="31px" height="32px" viewBox="0 0 31 32" version="1.1" xmlns="http://www.w3.org/2000/svg" xmlns:xlink="http://www.w3.org/1999/xlink">
    <!-- Generator: Sketch 45.2 (43514) - http://www.bohemiancoding.com/sketch -->
    <title>日历</title>
    <desc>Created with Sketch.</desc>
    <defs></defs>
    <g id="Page-1" stroke="none" stroke-width="1" fill="none" fill-rule="evenodd">
        <g id="12_全部话题_筛选" transform="translate(-453.000000, -954.000000)" fill-rule="nonzero" fill="#666666">
            <g id="日历" transform="translate(453.000000, 954.000000)">
                <path d="M30.3351206,31.253886 C29.7533512,31.8341969 28.7560322,32 27.924933,32 L3.07506702,32 C2.24396783,32 1.16353887,31.8341969 0.581769437,31.253886 C0,30.6735751 0,29.8445596 0,29.015544 L0,5.80310881 C0,4.97409326 0.249329759,3.8134715 0.831099196,3.23316062 C1.41286863,2.65284974 2.16085791,2.15544041 3.32439678,2.23834197 L8.80965147,2.23834197 L8.80965147,0 L11.0536193,0 L11.0536193,2.23834197 L19.9463807,2.23834197 L19.9463807,0 L22.1072386,0 L22.1072386,2.23834197 L27.6756032,2.23834197 C28.5067024,2.23834197 29.6702413,2.7357513 30.2520107,3.31606218 C30.8337802,3.89637306 31,4.97409326 31,5.80310881 L31,29.015544 C30.9168901,29.761658 30.9168901,30.6735751 30.3351206,31.253886 Z M28.7560322,4.39378238 C28.7560322,4.39378238 27.7587131,4.39378238 27.0107239,4.39378238 L22.1072386,4.39378238 L22.1072386,8.78756477 L19.8632708,8.78756477 L19.8632708,4.39378238 L11.0536193,4.39378238 L11.0536193,8.78756477 L8.80965147,8.78756477 L8.80965147,4.39378238 L3.90616622,4.39378238 C3.15817694,4.39378238 2.16085791,4.39378238 2.16085791,4.39378238 C2.16085791,4.39378238 2.16085791,5.6373057 2.16085791,6.38341969 L2.16085791,28.6839378 C2.16085791,29.4300518 2.16085791,29.761658 2.16085791,29.761658 C2.16085791,29.761658 2.49329759,29.761658 3.24128686,29.761658 L26.0134048,29.761658 C26.7613941,29.761658 28.6729223,29.761658 28.6729223,29.761658 C28.6729223,29.761658 28.6729223,27.8549223 28.6729223,27.1917098 L28.6729223,6.38341969 C28.7560322,5.6373057 28.7560322,4.39378238 28.7560322,4.39378238 Z M4.40482574,12.1036269 L26.5120643,12.1036269 L26.5120643,14.3419689 L4.40482574,14.3419689 L4.40482574,12.1036269 Z M8.14477212,17.4093264 C9.14209115,17.4093264 9.97319035,18.238342 9.97319035,19.2331606 C9.97319035,20.2279793 9.14209115,21.0569948 8.14477212,21.0569948 C7.14745308,21.0569948 6.31635389,20.2279793 6.31635389,19.2331606 C6.31635389,18.1554404 7.14745308,17.4093264 8.14477212,17.4093264 Z M8.14477212,23.7927461 C9.14209115,23.7927461 9.97319035,24.6217617 9.97319035,25.6165803 C9.97319035,26.611399 9.14209115,27.4404145 8.14477212,27.4404145 C7.14745308,27.4404145 6.31635389,26.611399 6.31635389,25.6165803 C6.31635389,24.6217617 7.14745308,23.7927461 8.14477212,23.7927461 Z M15.458445,17.4093264 C16.4557641,17.4093264 17.2868633,18.238342 17.2868633,19.2331606 C17.2868633,20.2279793 16.4557641,21.0569948 15.458445,21.0569948 C14.461126,21.0569948 13.6300268,20.2279793 13.6300268,19.2331606 C13.6300268,18.1554404 14.461126,17.4093264 15.458445,17.4093264 Z M15.458445,23.7927461 C16.4557641,23.7927461 17.2868633,24.6217617 17.2868633,25.6165803 C17.2868633,26.611399 16.4557641,27.4404145 15.458445,27.4404145 C14.461126,27.4404145 13.6300268,26.611399 13.6300268,25.6165803 C13.6300268,24.6217617 14.461126,23.7927461 15.458445,23.7927461 Z M22.772118,17.4093264 C23.769437,17.4093264 24.6005362,18.238342 24.6005362,19.2331606 C24.6005362,20.2279793 23.769437,21.0569948 22.772118,21.0569948 C21.7747989,21.0569948 20.9436997,20.2279793 20.9436997,19.2331606 C20.9436997,18.1554404 21.7747989,17.4093264 22.772118,17.4093264 Z M22.772118,23.7927461 C23.769437,23.7927461 24.6005362,24.6217617 24.6005362,25.6165803 C24.6005362,26.611399 23.769437,27.4404145 22.772118,27.4404145 C21.7747989,27.4404145 20.9436997,26.611399 20.9436997,25.6165803 C20.9436997,24.6217617 21.7747989,23.7927461 22.772118,23.7927461 Z" id="Shape"></path>
            </g>
        </g>
    </g>
</svg>