<?xml version="1.0" encoding="UTF-8" standalone="no"?>
<svg width="32px" height="32px" viewBox="0 0 32 32" version="1.1" xmlns="http://www.w3.org/2000/svg" xmlns:xlink="http://www.w3.org/1999/xlink">
    <!-- Generator: Sketch 45.2 (43514) - http://www.bohemiancoding.com/sketch -->
    <title>电话</title>
    <desc>Created with Sketch.</desc>
    <defs></defs>
    <g id="Page-1" stroke="none" stroke-width="1" fill="none" fill-rule="evenodd">
        <g id="9_详情_发送照片" transform="translate(-505.000000, -631.000000)" fill-rule="nonzero" fill="#17A171">
            <g id="电话" transform="translate(481.000000, 623.000000)">
                <g transform="translate(24.000000, 8.000000)" id="Shape">
                    <path d="M15.5428409,4.76636401e-16 C6.95879143,4.76636401e-16 0,7.16337063 0,16 C0,24.8365287 6.95879143,32 15.5428409,32 C24.1269554,32 31.0857143,24.8365623 31.0857143,16 C31.0856817,7.16343771 24.1269229,0 15.5428409,4.76636401e-16 Z M15.5428409,29.6402048 C8.22478152,29.6402048 2.2923162,23.5332196 2.2923162,16 C2.2923162,8.4666798 8.22474894,2.3597617 15.5428409,2.3597617 C22.8609002,2.3597617 28.7933981,8.46671334 28.7933981,16 C28.7933655,23.5332867 22.8609328,29.6402048 15.5428409,29.6402048 Z M20.4071138,24.3291646 L21.1812975,23.8900549 C20.5690075,23.1211769 20.0093355,22.3299947 19.4914319,21.5207007 C18.9776335,20.7180476 18.5037466,19.8937946 18.0600294,19.0543814 L16.9241994,19.6983553 C15.425485,17.5247758 14.1463649,15.1863793 13.1323217,12.6506316 L14.2829759,11.998105 C13.8387049,11.1757638 13.4224858,10.3361158 13.0437998,9.47372746 C12.6503221,8.57722865 12.2947359,7.65305909 11.9872388,6.69397406 L11.2230248,7.12724772 C9.92562684,7.8899878 9.3725035,8.84598711 9.56332893,9.99581585 L9.57460187,10.0445164 L9.56906314,10.0478369 C9.63064076,10.3269257 9.69616064,10.603801 9.76529698,10.8789656 L9.76809893,10.8911743 L9.76839215,10.8917109 C10.9759975,15.685023 13.332563,19.8268482 16.5106194,23.5027314 C16.52098,23.5303351 16.5305588,23.5575028 16.5392578,23.5842008 C16.7478398,23.8030849 16.9565195,24.0221031 17.1651666,24.2408529 C18.0070531,25.0212352 19.087789,25.0506501 20.4071138,24.3291646 L20.4071138,24.3291646 L20.4071138,24.3291646 Z M21.8372783,23.5179587 C21.2064824,22.7346585 20.6332893,21.9285508 20.1060025,21.1045661 C19.5986877,20.3116397 19.1345424,19.5060016 18.702652,18.6897983 L19.5752622,18.1950453 C20.0187839,18.3093842 22.1211217,20.8279592 22.6594208,23.0517485 L21.8372457,23.5179923 L21.8372783,23.5179587 Z M14.9257941,11.6334548 C14.4945227,10.8341893 14.0877195,10.0121835 13.713888,9.16109828 C13.3130797,8.24860074 12.9527692,7.30474302 12.6435779,6.32191146 L13.381597,5.90332846 C14.4011789,6.73613423 15.827173,10.4006473 15.6775622,11.207124 L14.9258267,11.6334212 L14.9257941,11.6334548 Z"></path>
                </g>
            </g>
        </g>
    </g>
</svg>