<?xml version="1.0" encoding="UTF-8" standalone="no"?>
<svg width="30px" height="30px" viewBox="0 0 30 30" version="1.1" xmlns="http://www.w3.org/2000/svg" xmlns:xlink="http://www.w3.org/1999/xlink">
    <!-- Generator: Sketch 45.2 (43514) - http://www.bohemiancoding.com/sketch -->
    <title>筛选Icon</title>
    <desc>Created with Sketch.</desc>
    <defs></defs>
    <g id="Page-1" stroke="none" stroke-width="1" fill="none" fill-rule="evenodd">
        <g id="10_全班话题" transform="translate(-637.000000, -163.000000)" fill-rule="nonzero" fill="#666666">
            <g id="筛选" transform="translate(606.000000, 131.000000)">
                <path d="M48.4928266,60.8465779 L48.4928266,43.542507 C48.4928266,43.2571001 48.6069244,42.9780749 48.8144022,42.7672774 L56.9468709,34.3134264 L35.0280887,34.3134264 L43.174069,42.7729909 C43.3679351,42.9725953 43.4877378,43.2451385 43.4887386,43.5456811 L43.4887053,53.9557489 L45.4716044,55.4379469 C46.0075637,55.8408979 46.0880326,56.566811 45.6592652,57.062982 C45.2304978,57.5591529 44.4402206,57.6334282 43.9039611,57.2364915 L41.4589994,55.3946447 C41.1785924,55.1897612 40.9980377,54.8623217 40.9966031,54.4926159 L40.9966031,43.976431 L31.3172089,33.9225038 C30.988694,33.5817997 30.9082585,33.0979578 31.1091639,32.6823437 C31.3103363,32.2667629 31.7589207,32 32.2480398,32 L59.7537427,32 C60.2494342,32 60.6917799,32.2667295 60.8926186,32.6886252 C61.093791,33.1042059 61.0067164,33.594062 60.6782349,33.9290526 L50.9850289,43.9826791 L50.9850289,60.8464777 C50.9850289,61.4852184 50.4289524,62 49.7389611,62 C49.0489699,62 48.4928934,61.485185 48.4928934,60.8464777 L48.4928266,60.8465779 Z" id="筛选Icon"></path>
            </g>
        </g>
    </g>
</svg>