<?xml version="1.0" encoding="UTF-8" standalone="no"?>
<svg width="26px" height="26px" viewBox="0 0 26 26" version="1.1" xmlns="http://www.w3.org/2000/svg" xmlns:xlink="http://www.w3.org/1999/xlink">
    <!-- Generator: Sketch 45.2 (43514) - http://www.bohemiancoding.com/sketch -->
    <title>话题</title>
    <desc>Created with Sketch.</desc>
    <defs>
        <linearGradient x1="50%" y1="0%" x2="50%" y2="100%" id="linearGradient-1">
            <stop stop-color="#666666" offset="0%"></stop>
            <stop stop-color="#2C2C2C" offset="100%"></stop>
        </linearGradient>
    </defs>
    <g id="Page-1" stroke="none" stroke-width="1" fill="none" fill-rule="evenodd">
        <g id="2_首页" transform="translate(-46.000000, -682.000000)" fill-rule="nonzero">
            <g id="Rectangle-2-Copy-3" transform="translate(0.000000, 570.000000)">
                <g id="话题" transform="translate(46.000000, 112.000000)">
                    <path d="M15.5313945,10.3124364 L14.8474207,10.3124364 L14.5833548,11.8357234 L15.5270656,11.8357234 C15.7824736,11.8312823 16.0162368,11.6936091 16.1504342,11.4715556 L16.25,10.8986576 C16.1764079,10.5566952 15.8777104,10.3124363 15.5313945,10.3124364 L15.5313945,10.3124364 Z M13.7392098,16.7697521 L15.2456839,16.7697521 L15.5097498,15.2464651 L14.0032757,15.2464651 L13.7392098,16.7697521 Z M9.21545855,16.005888 C9.21545855,15.5884275 9.54445865,15.2464651 9.95137981,15.2464651 L10.7652221,15.2464651 L11.366946,11.8357234 L9.84315607,11.8357234 L8.6786689,18.603914 C8.60507676,19.0169335 8.87780054,19.4121887 9.28039278,19.4876869 C9.68298498,19.5631851 10.0682614,19.2833977 10.1418535,18.8703782 L10.4968273,16.7741932 L9.95137981,16.7741932 C9.75657711,16.7741932 9.56610337,16.6942539 9.42757701,16.5476986 C9.2933796,16.4011432 9.21545851,16.2101772 9.21545855,16.005888 Z M11.9340382,8.47827446 C12.0076304,8.06525497 11.7349066,7.66999973 11.3323144,7.59450153 C10.9297222,7.52344441 10.5444458,7.79879076 10.4708536,8.21181025 L10.1158798,10.3079953 L11.618025,10.3079953 L11.9340382,8.47827446 Z M11.6223539,10.3079953 L10.1115509,10.3079953 L9.84748502,11.8312823 L11.3582881,11.8312823 L11.6223539,10.3079953 L11.6223539,10.3079953 Z" id="Shape" fill="#666666"></path>
                    <path d="M10.5066737,14.8087082 C10.0887435,14.8087082 9.75,15.1313229 9.75,15.5293541 C9.75,15.9273853 10.0887435,16.25 10.5066737,16.25 L11.0653804,16.25 L11.3337356,14.812898 L10.5066737,14.812898 L10.5066737,14.8087082 Z M16.1729278,11.5909405 L15.2094886,11.5909405 L14.6111885,14.8087082 L16.142133,14.8087082 L16.8020228,11.2557563 C16.6700448,11.4610566 16.4324845,11.5867507 16.1729278,11.5909405 Z M16.1729278,10.1538385 C16.5204698,10.1622181 16.8196199,10.3926572 16.8944074,10.7152719 L17.3211361,8.4276402 C17.3959237,8.03798865 17.1187699,7.66509629 16.7096382,7.59386966 C16.3005065,7.52683282 15.9089719,7.78660054 15.8341844,8.17625209 L15.4734446,10.1538385 L16.1729278,10.1538385 Z" id="Shape" fill="url(#linearGradient-1)"></path>
                    <path d="M17.5848641,11.1911122 L17.6636664,11.1911122 C18.0795677,11.1911122 18.4166667,10.8685377 18.4166667,10.4705561 C18.4166667,10.0725745 18.0795677,9.75 17.6636664,9.75 L17.5848641,9.75 C17.1689628,9.75 16.8318638,10.0725745 16.8318638,10.4705561 C16.8318638,10.8685377 17.1689628,11.1911122 17.5848641,11.1911122 Z M14.3802351,11.1911122 L14.6472875,9.75418928 L11.3813679,9.75418928 L11.1143155,11.1911122 L14.3802351,11.1911122 Z M7.25300025,9.75418928 C6.83709896,9.75418928 6.5,10.0767638 6.5,10.4747454 C6.5,10.8727269 6.83709896,11.1953015 7.25300025,11.1953014 L9.58642541,11.1953014 L9.85347784,9.75837856 L7.25300025,9.75837856 L7.25300025,9.75418928 Z M16.0876194,10.4747454 C16.0876194,10.4202847 16.0832415,10.3700134 16.0701078,10.3155527 L15.9694159,10.8559698 C16.0438403,10.7428593 16.0876194,10.6088023 16.0876194,10.4747454 Z M10.5189199,14.4084789 L10.2518675,15.8454018 L13.5177872,15.8454018 L13.7848396,14.4084789 L10.5189199,14.4084789 Z M17.6461548,15.8454018 C18.0620561,15.8454018 18.399155,15.5228273 18.399155,15.1248457 C18.399155,14.7268642 18.0620561,14.4042896 17.6461548,14.4042896 L15.3127296,14.4042896 L15.0456772,15.8412125 L17.6461548,15.8412125 L17.6461548,15.8454018 Z M7.30115723,14.4084789 L7.25300025,14.4084789 C7.05599437,14.4084789 6.8677443,14.483886 6.73202914,14.6221322 C6.59631397,14.7561892 6.52626743,14.9405175 6.53502329,15.129035 C6.54815702,15.5312058 6.88963386,15.8495911 7.30991306,15.8454018 C7.72581434,15.8454018 8.06291331,15.5228273 8.06291331,15.1248457 C8.06291331,14.7268642 7.72581434,14.4042896 7.30991306,14.4042896 L7.30115723,14.4084789 L7.30115723,14.4084789 Z M13.2025778,17.571385 C13.1281533,17.960988 13.4039616,18.3338339 13.811107,18.4050517 C14.2182525,18.4762694 14.6078863,18.2123448 14.6823108,17.8227418 L15.0412993,15.8454018 L13.5221651,15.8454018 L13.2025778,17.571385 Z" id="Shape" fill="#666666"></path>
                    <path d="M1.28283812,26 C0.949803304,26 0.625307817,25.8653075 0.37766653,25.6176471 C0.0489013638,25.2830882 -0.0749192795,24.809492 0.0446317172,24.3532754 L1.76531165,17.8141711 C1.15047811,16.3282085 0.817443301,14.7510027 0.783285864,13.1260027 C0.744858781,11.3706551 1.05227555,9.66310158 1.69699681,8.04679144 C2.31610003,6.48696523 3.22127161,5.08355614 4.38689353,3.87132353 C5.54824576,2.66343584 6.90600312,1.71189839 8.42600824,1.04278075 C10.0015192,0.351938493 11.670963,0 13.3916429,0 C16.7604183,0 19.9285189,1.33389036 22.3067291,3.75835562 C24.6892091,6.18282088 26,9.40675134 26,12.834893 C26,14.5902406 25.6541561,16.2891043 24.9752774,17.8923797 C24.3177471,19.4348262 23.3826878,20.8165107 22.1957175,22.0026738 C21.0044776,23.184492 19.6253718,24.105615 18.088288,24.7356283 C16.4956983,25.3917112 14.8177152,25.7002005 13.0927655,25.6610962 C11.2012985,25.6176471 9.39949464,25.1570855 7.72151147,24.2967915 L1.62014261,25.9565508 C1.50486133,25.9869653 1.39384972,26 1.28283812,26 Z M13.3873733,1.39037432 C10.347363,1.39037432 7.49521861,2.6156417 5.36037992,4.84024063 C3.22127161,7.06918449 2.08126778,9.99766042 2.14958262,13.0912433 C2.18374002,14.6163102 2.50823551,16.089238 3.11026001,17.4752674 L3.20846257,17.7012032 L1.40238908,24.5748663 L7.88375923,22.806484 L8.12286116,22.9368316 C9.67702368,23.7754011 11.3592765,24.2272727 13.1269229,24.266377 C16.1712029,24.3402406 19.053235,23.1801471 21.2435795,21.0033422 C23.4339239,18.8265374 24.6379729,15.9284759 24.6379729,12.8305481 C24.6379729,9.7717246 23.4680813,6.89973263 21.3460517,4.73596257 C19.2154828,2.58088235 16.3932261,1.39037432 13.3873733,1.39037432 L13.3873733,1.39037432 Z" id="Shape" fill="#666666"></path>
                </g>
            </g>
        </g>
    </g>
</svg>